Coordinates
version=1
nRows=14
nColumns=24
inDegrees=yes

Units are S.I. units (second, meters, Newtons, ...)
Angles are in degrees.

endheader
time	pelvis_tilt	pelvis_list	pelvis_rotation	pelvis_tx	pelvis_ty	pelvis_tz	hip_flexion_r	hip_adduction_r	hip_rotation_r	knee_angle_r	ankle_angle_r	subtalar_angle_r	mtp_angle_r	hip_flexion_l	hip_adduction_l	hip_rotation_l	knee_angle_l	ankle_angle_l	subtalar_angle_l	mtp_angle_l	lumbar_extension	lumbar_bending	lumbar_rotation
      8.41000000	     44.12097396	      3.79419710	      0.17450773	     -0.81413757	      1.01948362	     -0.28362186	     10.91134908	    -13.10828743	      6.82930718	    -49.03614064	    -10.91622243	     13.68478646	      0.00000000	     13.54711614	    -12.33969919	     -3.31105141	    -58.04597441	    -22.18624748	     14.46453833	      0.00000000	    -33.60417205	    -11.98063344	      0.22116538
      8.42000000	     44.12811720	      3.79993459	      0.17074530	     -0.81414413	      1.01947336	     -0.28361728	     10.91596764	    -13.11689985	      6.84292723	    -49.10901082	    -10.90263554	     13.67539640	      0.00000000	     13.53526230	    -12.33255317	     -3.32506940	    -58.04585950	    -22.17563662	     14.41051449	      0.00000000	    -33.60891903	    -11.98522845	      0.22180231
      8.43000000	     44.13511361	      3.80373270	      0.16491547	     -0.81415299	      1.01946749	     -0.28361865	     10.91994855	    -13.12479210	      6.85641002	    -49.17385292	    -10.89215904	     13.67143235	      0.00000000	     13.52247154	    -12.32517490	     -3.33853594	    -58.04516603	    -22.16669912	     14.35934604	      0.00000000	    -33.61583854	    -11.98904998	      0.22916513
      8.44000000	     44.14103688	      3.80553526	      0.15837345	     -0.81415317	      1.01946972	     -0.28363845	     10.92284315	    -13.13148577	      6.86975328	    -49.23010281	    -10.88470406	     13.67272172	      0.00000000	     13.51060312	    -12.31873511	     -3.34903005	    -58.04345549	    -22.16175703	     14.31691270	      0.00000000	    -33.62372866	    -11.99171768	      0.24068561
      8.45000000	     44.14547249	      3.80621763	      0.15314324	     -0.81414779	      1.01947783	     -0.28366761	     10.92481272	    -13.13639964	      6.88255112	    -49.27702752	    -10.87970685	     13.67724684	      0.00000000	     13.50166024	    -12.31511001	     -3.35487402	    -58.04022760	    -22.16213238	     14.28761263	      0.00000000	    -33.63146983	    -11.99360780	      0.25303166
      8.46000000	     44.14829165	      3.80651295	      0.15110543	     -0.81415280	      1.01948753	     -0.28367554	     10.92630295	    -13.13928977	      6.89388163	    -49.31418019	    -10.87663132	     13.68192910	      0.00000000	     13.49680093	    -12.31526543	     -3.35589335	    -58.03561562	    -22.16785682	     14.27344015	      0.00000000	    -33.63844400	    -11.99544664	      0.26337102
      8.47000000	     44.14963667	      3.80670409	      0.15246163	     -0.81417182	      1.01949538	     -0.28365648	     10.92737905	    -13.14079954	      6.90250726	    -49.34177805	    -10.87538215	     13.68376977	      0.00000000	     13.49572602	    -12.31860684	     -3.35350764	    -58.03061519	    -22.17777525	     14.27354809	      0.00000000	    -33.64445944	    -11.99761759	      0.27025725
      8.48000000	     44.14997950	      3.80678285	      0.15536144	     -0.81419294	      1.01950060	     -0.28363526	     10.92747123	    -13.14260372	      6.90741811	    -49.36060693	    -10.87632839	     13.68090844	      0.00000000	     13.49675159	    -12.32341889	     -3.35010713	    -58.02662733	    -22.18993817	     14.28441507	      0.00000000	    -33.64949643	    -11.99980820	      0.27390179
      8.49000000	     44.15014118	      3.80683406	      0.15724844	     -0.81420445	      1.01950685	     -0.28363255	     10.92577976	    -13.14669634	      6.90842167	    -49.37152449	    -10.87992332	     13.67324642	      0.00000000	     13.49766554	    -12.32789764	     -3.34791260	    -58.02445263	    -22.20208358	     14.30056177	      0.00000000	    -33.65361685	    -12.00139818	      0.27586742
      8.50000000	     44.15104340	      3.80724798	      0.15662540	     -0.81420225	      1.01951787	     -0.28364975	     10.92203343	    -13.15402454	      6.90636318	    -49.37495712	    -10.88617984	     13.66243548	      0.00000000	     13.49673175	    -12.33083089	     -3.34779458	    -58.02337185	    -22.21204745	     14.31563597	      0.00000000	    -33.65709485	    -12.00222857	      0.27833643
      8.51000000	     44.15305337	      3.80845251	      0.15382598	     -0.81419048	      1.01953355	     -0.28367748	     10.91686926	    -13.16349639	      6.90287076	    -49.37083707	    -10.89431821	     13.65122279	      0.00000000	     13.49305021	    -12.33142002	     -3.34882143	    -58.02098028	    -22.21803602	     14.32364316	      0.00000000	    -33.66045021	    -12.00291310	      0.28315258
      8.52000000	     44.15563125	      3.81062813	      0.15041782	     -0.81418033	      1.01954964	     -0.28370147	     10.91150957	    -13.17232053	      6.89984481	    -49.35899610	    -10.90276059	     13.64237566	      0.00000000	     13.48628336	    -12.32899140	     -3.34891484	    -58.01393651	    -22.21876965	     14.32009367	      0.00000000	    -33.66412025	    -12.00438054	      0.29090740
      8.53000000	     44.15771450	      3.81359061	      0.14790631	     -0.81418300	      1.01956139	     -0.28370566	     10.90705796	    -13.17761168	      6.89892499	    -49.33966266	    -10.90949393	     13.63759191	      0.00000000	     13.47619775	    -12.32324287	     -3.34638264	    -57.99945103	    -22.21355635	     14.30285286	      0.00000000	    -33.66799635	    -12.00711493	      0.30039048
      8.54000000	     44.15826668	      3.81658052	      0.14672626	     -0.81419876	      1.01956562	     -0.28368559	     10.90378078	    -13.17817481	      6.90100638	    -49.31374009	    -10.91269162	     13.63681943	      0.00000000	     13.46239684	    -12.31470148	     -3.34162520	    -57.97711770	    -22.20237117	     14.27254368	      0.00000000	    -33.67127989	    -12.01072625	      0.30864688
